<?xml version="1.0" encoding="UTF-8"?>
<!-- Created with Inkscape (http://www.inkscape.org/) -->
<svg width="1920" height="1018" version="1.1" viewBox="0 0 508.01 269.35" xml:space="preserve" xmlns="http://www.w3.org/2000/svg" xmlns:xlink="http://www.w3.org/1999/xlink"><defs><filter id="filter108153" x="-.95406" y="-.93201" width="2.9081" height="2.864" color-interpolation-filters="sRGB"><feGaussianBlur stdDeviation="36.065515"/></filter><linearGradient id="linearGradient108744" x1="-1.3091e-5" x2="508.01" y1="134.68" y2="134.68" gradientUnits="userSpaceOnUse"><stop stop-color="#030207" offset="0"/><stop stop-color="#180118" offset="1"/></linearGradient><filter id="filter108748" x="-1.0606" y="-1.0361" width="3.1213" height="3.0722" color-interpolation-filters="sRGB"><feGaussianBlur stdDeviation="40.094144"/></filter></defs><g><rect x="-1.3091e-5" y="-8.8818e-15" width="508.01" height="269.35" ry="0" fill="url(#linearGradient108744)" style="paint-order:fill markers stroke"/><ellipse cx="167.36" cy="137.51" rx="45.362" ry="46.436" fill="#b745eb" filter="url(#filter108153)" opacity=".35456" style="mix-blend-mode:normal;paint-order:fill markers stroke"/><ellipse cx="109.91" cy="152.06" rx="45.362" ry="46.436" fill="#5b45eb" filter="url(#filter108748)" opacity=".28499" style="mix-blend-mode:normal;paint-order:fill markers stroke"/></g><g fill="#fff"><circle cx="869.04" cy="-411.21" r=".69769" stroke="#000" stroke-width=".26459"/><circle transform="rotate(-5.5287)" cx="303.08" cy="148.63" r="1.1628" opacity=".35035"/><circle transform="rotate(-5.5287)" cx="374.35" cy="79.872" r="1.1628" opacity=".35035"/><circle transform="rotate(-5.5287)" cx="268" cy="122.32" r="1.1628" opacity=".35035"/><circle transform="rotate(-5.5287)" cx="275.95" cy="79.386" r="1.1628" opacity=".35035"/><circle transform="rotate(-5.5287)" cx="63.169" cy="129.92" r="1.1628" opacity=".35035"/><circle transform="rotate(-5.5287)" cx="87.769" cy="205.03" r="1.1628" opacity=".35035"/><circle transform="rotate(-5.5287)" cx="-9.9345" cy="255.3" r="1.1628" opacity=".35035"/><circle transform="rotate(-5.5287)" cx="213.11" cy="238.99" r="1.1628" opacity=".35035"/><circle transform="rotate(-5.5287)" cx="176.62" cy="154.76" r="1.1628" opacity=".35035"/><circle transform="rotate(-5.5287)" cx="206.28" cy="89.112" r="1.1628" opacity=".35035"/><circle transform="rotate(-5.5287)" cx="76.854" cy="82.894" r="1.1628" opacity=".35035"/><circle transform="rotate(-5.5287)" cx="116.92" cy="71.498" r="1.1628" opacity=".35035"/><circle transform="rotate(-5.5287)" cx="131.55" cy="143.41" r="1.1628" opacity=".35035"/><circle transform="rotate(-5.5287)" cx="377.9" cy="227.36" r="1.1628" opacity=".35035"/><circle transform="rotate(-5.5287)" cx="451.95" cy="140.96" r="1.1628" opacity=".35035"/><circle transform="rotate(-5.5287)" cx="401.67" cy="170.49" r="1.1628" opacity=".35035"/><circle transform="rotate(-5.5287)" cx="460.65" cy="228.69" r="1.1628" opacity=".35035"/><circle transform="rotate(-5.5287)" cx="456.75" cy="280.67" r="1.1628" opacity=".35035"/><circle transform="rotate(-5.5287)" cx="282.15" cy="254.44" r="1.1628" opacity=".35035"/><circle transform="rotate(-5.5287)" cx="284.88" cy="192.93" r="1.1628" opacity=".35035"/><circle transform="rotate(-5.5287)" cx="242.6" cy="39.289" r="1.1628" opacity=".35035"/><circle transform="rotate(-5.5287)" cx="22.35" cy="67.46" r="1.1628" opacity=".35035"/><circle transform="rotate(-5.5287)" cx="11.754" cy="216.42" r="1.1628" opacity=".35035"/><circle transform="rotate(-5.5287)" cx="100.47" cy="277.21" r="1.1628" opacity=".35035"/><circle transform="rotate(-5.5287)" cx="368.37" cy="132.97" r=".46512" opacity=".35035"/><circle transform="rotate(-5.5287)" cx="434.55" cy="64.758" r=".46512" opacity=".35035"/><circle transform="rotate(-5.5287)" cx="380.9" cy="185.67" r=".46512" opacity=".35035"/><circle transform="rotate(-5.5287)" cx="158.51" cy="236.09" r=".46512" opacity=".35035"/><circle transform="rotate(-5.5287)" cx="76.418" cy="191.46" r=".46512" opacity=".35035"/><circle transform="rotate(-5.5287)" cx="176.66" cy="98.375" r=".46512" opacity=".35035"/><circle transform="rotate(-5.5287)" cx="95.125" cy="69.762" r=".46512" opacity=".35035"/><circle transform="rotate(-5.5287)" cx="13.786" cy="166.68" r=".46512" opacity=".35035"/><path d="m55.137 71.497c-0.72399 0.29998-1.448 0.59995-2.172 0.89993l-0.37315 0.35078c0.71944-0.29927 1.4389-0.59854 2.1583-0.8978l0.38681-0.35291z" opacity=".35035" style="paint-order:fill markers stroke"/><path d="m41.645 79.709c0.50797-0.14693 1.0159-0.29387 1.5239-0.44081l0.38114-0.35029c-0.50721 0.14594-1.0144 0.29186-1.5216 0.4378l-0.38342 0.35331z" opacity=".35035" style="paint-order:fill markers stroke"/><circle transform="rotate(-5.5287)" cx="69.136" cy="68.379" r=".46512" opacity=".35035"/><circle transform="rotate(-5.5287)" cx="12.665" cy="37.401" r=".46512" opacity=".35035"/><circle transform="rotate(-5.5287)" cx="37.358" cy="87.417" r=".46512" opacity=".35035"/><circle transform="rotate(-5.5287)" cx="36.478" cy="150.47" r=".46512" opacity=".35035"/><path d="m145.26 144.24c1.208 0.17357 2.4161 0.34714 3.6242 0.52072l0.38415-0.32408c-1.2048-0.17631-2.4097-0.35262-3.6146-0.52892l-0.39375 0.33228z" opacity=".35035" style="paint-order:fill markers stroke"/><circle transform="rotate(-5.5287)" cx="190.34" cy="165.96" r=".46512" opacity=".35035"/><circle transform="rotate(-5.5287)" cx="394.78" cy="232.58" r=".46512" opacity=".35035"/><circle transform="rotate(-5.5287)" cx="367.59" cy="281.33" r=".46512" opacity=".35035"/><circle transform="rotate(-5.5287)" cx="342.01" cy="247.71" r=".46512" opacity=".35035"/><circle transform="rotate(-5.5287)" cx="441.66" cy="191.51" r=".46512" opacity=".35035"/><circle transform="rotate(-5.5287)" cx="452.62" cy="188.96" r=".46512" opacity=".35035"/><circle transform="rotate(-5.5287)" cx="444.37" cy="225.92" r=".46512" opacity=".35035"/><circle transform="rotate(-5.5287)" cx="422.69" cy="232" r=".46512" opacity=".35035"/><circle transform="rotate(-5.5287)" cx="322.03" cy="153.97" r=".23256" opacity=".35035"/><circle transform="rotate(-5.5287)" cx="330.83" cy="74.184" r=".23256" opacity=".35035"/><circle transform="rotate(-5.5287)" cx="215.17" cy="194.25" r=".69769" opacity=".35035"/><circle transform="rotate(-5.5287)" cx="150.66" cy="188.19" r=".69769" opacity=".35035"/><circle transform="rotate(-5.5287)" cx="260.02" cy="122.05" r=".69769" opacity=".35035"/><circle transform="rotate(-5.5287)" cx="413.17" cy="43.08" r=".69769" opacity=".35035"/><circle transform="rotate(-5.5287)" cx="447.15" cy="43.96" r=".69769" opacity=".35035"/><circle transform="rotate(-5.5287)" cx="432.52" cy="56.277" r=".69769" opacity=".35035"/><circle transform="rotate(-5.5287)" cx="434.94" cy="49.46" r=".69769" opacity=".35035"/><circle transform="rotate(-5.5287)" cx="363.99" cy="175.83" r=".69769" opacity=".35035"/><circle transform="rotate(-5.5287)" cx="471.46" cy="107.89" r=".69769" opacity=".35035"/><circle transform="rotate(-5.5287)" cx="369.42" cy="151.45" r=".69769" opacity=".35035"/><circle transform="rotate(-5.5287)" cx="293.11" cy="197.28" r=".69769" opacity=".35035"/><circle transform="rotate(-5.5287)" cx="382.46" cy="197.28" r=".69769" opacity=".35035"/><circle transform="rotate(-5.5287)" cx="346.18" cy="163.47" r=".69769" opacity=".35035"/><circle transform="rotate(-5.5287)" cx="334.4" cy="101.89" r=".69769" opacity=".35035"/><circle transform="rotate(-5.5287)" cx="410.71" cy="234.38" r=".69769" opacity=".35035"/><circle transform="rotate(-5.5287)" cx="398.21" cy="273.5" r=".69769" opacity=".35035"/><circle transform="rotate(-5.5287)" cx="428.92" cy="260.86" r=".69769" opacity=".35035"/><circle transform="rotate(-5.5287)" cx="439.15" cy="252.4" r=".69769" opacity=".35035"/><circle transform="rotate(-5.5287)" cx="430.09" cy="186.83" r=".69769" opacity=".35035"/><circle transform="rotate(-5.5287)" cx="438.79" cy="182.66" r=".69769" opacity=".35035"/><circle transform="rotate(-5.5287)" cx="49.03" cy="49.31" r=".69769" opacity=".35035"/><circle transform="rotate(-5.5287)" cx="90.471" cy="117.31" r=".69769" opacity=".35035"/><circle transform="rotate(-5.5287)" cx="348.84" cy="41.951" r=".69769" opacity=".35035"/><circle transform="rotate(-5.5287)" cx="322.04" cy="47.27" r=".69769" opacity=".35035"/><circle transform="rotate(-5.5287)" cx="323.93" cy="32.684" r=".69769" opacity=".35035"/><circle transform="rotate(-5.5287)" cx="330.32" cy="32.766" r=".69769" opacity=".35035"/><circle transform="rotate(-5.5287)" cx="331.95" cy="46.589" r=".69769" opacity=".35035"/><circle transform="rotate(-5.5287)" cx="118.82" cy="54.548" r=".69769" opacity=".35035"/><circle transform="rotate(-5.5287)" cx="101.32" cy="44.248" r=".69769" opacity=".35035"/><circle transform="rotate(-5.5287)" cx="143.5" cy="46.671" r=".69769" opacity=".35035"/><circle transform="rotate(-5.5287)" cx="117.12" cy="48.504" r=".69769" opacity=".35035"/><circle transform="rotate(-5.5287)" cx="13.476" cy="38.498" r=".69769" opacity=".35035"/><circle transform="rotate(-5.5287)" cx="1.4609" cy="40.258" r=".69769" opacity=".35035"/><circle transform="rotate(-5.5287)" cx="1.7506" cy="61.403" r=".69769" opacity=".35035"/><circle transform="rotate(-5.5287)" cx="7.5569" cy="39.914" r=".69769" opacity=".35035"/><circle transform="rotate(-5.5287)" cx="28.523" cy="253.72" r=".69769" opacity=".35035"/><circle transform="rotate(-5.5287)" cx="40.602" cy="240.18" r=".69769" opacity=".35035"/><circle transform="rotate(-5.5287)" cx="71.913" cy="256.84" r=".69769" opacity=".35035"/><circle transform="rotate(-5.5287)" cx="49.351" cy="257.41" r=".69769" opacity=".35035"/><circle transform="rotate(-5.5287)" cx="41.859" cy="256.53" r=".69769" opacity=".35035"/><circle transform="rotate(-5.5287)" cx="55.954" cy="243.56" r=".69769" opacity=".35035"/><circle transform="rotate(-5.5287)" cx="167.75" cy="263.99" r=".69769" opacity=".35035"/><circle transform="rotate(-5.5287)" cx="174.43" cy="252.69" r=".69769" opacity=".35035"/><circle transform="rotate(-5.5287)" cx="190.69" cy="258.95" r=".69769" opacity=".35035"/><circle transform="rotate(-5.5287)" cx="189.85" cy="266.24" r=".69769" opacity=".35035"/><circle transform="rotate(111.45)" cx="112.6" cy="-409.57" r="1.1628" opacity=".35035"/><circle transform="rotate(111.45)" cx="116.15" cy="-262.08" r="1.1628" opacity=".35035"/><circle transform="rotate(111.45)" cx="139.91" cy="-318.95" r="1.1628" opacity=".35035"/><circle transform="rotate(111.45)" cx="106.62" cy="-356.47" r=".46512" opacity=".35035"/><circle transform="rotate(111.45)" cx="133.02" cy="-256.86" r=".46512" opacity=".35035"/><circle transform="rotate(111.45)" cx="182.61" cy="-263.52" r=".46512" opacity=".35035"/><circle transform="rotate(111.45)" cx="160.94" cy="-257.44" r=".46512" opacity=".35035"/><circle transform="rotate(111.45)" cx="60.273" cy="-335.47" r=".23256" opacity=".35035"/><circle transform="rotate(111.45)" cx="69.073" cy="-415.25" r=".23256" opacity=".35035"/><circle transform="rotate(111.45)" cx="107.67" cy="-337.99" r=".69769" opacity=".35035"/><circle transform="rotate(111.45)" cx="120.71" cy="-292.16" r=".69769" opacity=".35035"/><circle transform="rotate(111.45)" cx="84.428" cy="-325.97" r=".69769" opacity=".35035"/><circle transform="rotate(111.45)" cx="72.652" cy="-387.55" r=".69769" opacity=".35035"/><circle transform="rotate(111.45)" cx="148.96" cy="-255.06" r=".69769" opacity=".35035"/><circle transform="rotate(111.45)" cx="168.34" cy="-302.61" r=".69769" opacity=".35035"/><circle transform="rotate(111.45)" cx="87.086" cy="-447.49" r=".69769" opacity=".35035"/><circle transform="rotate(111.45)" cx="60.291" cy="-442.17" r=".69769" opacity=".35035"/><circle transform="rotate(111.45)" cx="62.174" cy="-456.75" r=".69769" opacity=".35035"/><circle transform="rotate(111.45)" cx="68.564" cy="-456.67" r=".69769" opacity=".35035"/><circle transform="rotate(111.45)" cx="70.197" cy="-442.85" r=".69769" opacity=".35035"/><circle transform="rotate(-52.147)" cx="84.525" cy="240.06" r="1.1628" opacity=".35035"/><circle transform="rotate(35.505)" cx="319.7" cy="11.024" r="1.1628" opacity=".35035"/><circle transform="rotate(-52.147)" cx="49.449" cy="213.76" r="1.1628" opacity=".35035"/><circle transform="rotate(-52.147)" cx="57.4" cy="170.82" r="1.1628" opacity=".35035"/><circle transform="rotate(-52.147)" cx="-155.38" cy="221.35" r="1.1628" opacity=".35035"/><circle transform="rotate(-52.147)" cx="-5.4448" cy="330.43" r="1.1628" opacity=".35035"/><circle transform="rotate(-52.147)" cx="-41.935" cy="246.2" r="1.1628" opacity=".35035"/><circle transform="rotate(-52.147)" cx="-12.273" cy="180.55" r="1.1628" opacity=".35035"/><circle transform="rotate(-52.147)" cx="-141.7" cy="174.33" r="1.1628" opacity=".35035"/><circle transform="rotate(-52.147)" cx="-101.64" cy="162.94" r="1.1628" opacity=".35035"/><circle transform="rotate(-52.147)" cx="-87.003" cy="234.85" r="1.1628" opacity=".35035"/><circle transform="rotate(-52.147)" cx="159.35" cy="318.79" r="1.1628" opacity=".35035"/><circle transform="rotate(35.505)" cx="395.05" cy="-54.744" r="1.1628" opacity=".35035"/><circle transform="rotate(-52.147)" cx="183.11" cy="261.93" r="1.1628" opacity=".35035"/><circle transform="rotate(-52.147)" cx="242.1" cy="320.13" r="1.1628" opacity=".35035"/><circle transform="rotate(-52.147)" cx="238.19" cy="372.11" r="1.1628" opacity=".35035"/><circle transform="rotate(-52.147)" cx="63.598" cy="345.88" r="1.1628" opacity=".35035"/><circle transform="rotate(-52.147)" cx="66.327" cy="284.37" r="1.1628" opacity=".35035"/><circle transform="rotate(-52.147)" cx="24.043" cy="130.73" r="1.1628" opacity=".35035"/><circle transform="rotate(-52.147)" cx="149.82" cy="224.41" r=".46512" opacity=".35035"/><circle transform="rotate(35.505)" cx="379.91" cy="-4.0906" r=".46512" opacity=".35035"/><circle transform="rotate(35.505)" cx="404.17" cy="-23.972" r=".46512" opacity=".35035"/><circle transform="rotate(-52.147)" cx="-8.0199" cy="387.07" r=".46512" opacity=".35035"/><circle transform="rotate(-52.147)" cx="-60.045" cy="327.53" r=".46512" opacity=".35035"/><circle transform="rotate(-52.147)" cx="-41.89" cy="189.81" r=".46512" opacity=".35035"/><circle transform="rotate(-52.147)" cx="-123.43" cy="161.2" r=".46512" opacity=".35035"/><path d="m27.921 237.71c-0.27925 0.73224-0.55851 1.4645-0.83776 2.1967 0 0-0.0014 0.51213-0.0014 0.51213 0.27664-0.72843 0.55328-1.4569 0.82993-2.1853l0.0092-0.52353z" opacity=".35035" style="paint-order:fill markers stroke"/><path d="m24.623 253.16c0.24211-0.47011 0.48421-0.94023 0.72632-1.4103l0.0072-0.51761c-0.24231 0.46888-0.48463 0.93773-0.72695 1.4066l-0.0066 0.52134z" opacity=".35035" style="paint-order:fill markers stroke"/><circle transform="rotate(-52.147)" cx="-149.42" cy="159.82" r=".46512" opacity=".35035"/><circle transform="rotate(-52.147)" cx="-181.19" cy="178.85" r=".46512" opacity=".35035"/><path d="m142.69 222.17c0.95591-0.75879 1.9118-1.5176 2.8678-2.2764 0 0 0.0283-0.50179 0.0283-0.50179-0.95569 0.75458-1.9114 1.5092-2.8671 2.2638l-0.029 0.51441z" opacity=".35035" style="paint-order:fill markers stroke"/><circle transform="rotate(-52.147)" cx="-28.209" cy="257.4" r=".46512" opacity=".35035"/><circle transform="rotate(-52.147)" cx="176.22" cy="324.02" r=".46512" opacity=".35035"/><circle transform="rotate(-52.147)" cx="149.03" cy="372.77" r=".46512" opacity=".35035"/><circle transform="rotate(-52.147)" cx="123.45" cy="339.15" r=".46512" opacity=".35035"/><circle transform="rotate(-52.147)" cx="67.263" cy="323.02" r=".46512" opacity=".35035"/><circle transform="rotate(-52.147)" cx="78.223" cy="320.48" r=".46512" opacity=".35035"/><circle transform="rotate(-52.147)" cx="225.81" cy="317.36" r=".46512" opacity=".35035"/><circle transform="rotate(-52.147)" cx="204.14" cy="323.44" r=".46512" opacity=".35035"/><circle transform="rotate(-52.147)" cx="103.47" cy="245.4" r=".23256" opacity=".35035"/><circle transform="rotate(-52.147)" cx="112.27" cy="165.62" r=".23256" opacity=".35035"/><circle transform="rotate(-52.147)" cx="-3.3852" cy="285.69" r=".69769" opacity=".35035"/><circle transform="rotate(-52.147)" cx="-67.893" cy="279.63" r=".69769" opacity=".35035"/><circle transform="rotate(-52.147)" cx="41.47" cy="213.49" r=".69769" opacity=".35035"/><circle transform="rotate(35.505)" cx="358.53" cy="-25.769" r=".69769" opacity=".35035"/><circle transform="rotate(35.505)" cx="392.51" cy="-24.889" r=".69769" opacity=".35035"/><circle transform="rotate(35.505)" cx="377.88" cy="-12.571" r=".69769" opacity=".35035"/><circle transform="rotate(35.505)" cx="380.3" cy="-19.389" r=".69769" opacity=".35035"/><circle transform="rotate(35.505)" cx="387.26" cy="-33.808" r=".69769" opacity=".35035"/><circle transform="rotate(35.505)" cx="414.57" cy="-87.817" r=".69769" opacity=".35035"/><circle transform="rotate(-52.147)" cx="150.87" cy="242.89" r=".69769" opacity=".35035"/><circle transform="rotate(-52.147)" cx="74.554" cy="288.72" r=".69769" opacity=".35035"/><circle transform="rotate(-52.147)" cx="163.91" cy="288.72" r=".69769" opacity=".35035"/><circle transform="rotate(-52.147)" cx="127.63" cy="254.91" r=".69769" opacity=".35035"/><circle transform="rotate(-52.147)" cx="115.85" cy="193.32" r=".69769" opacity=".35035"/><circle transform="rotate(-52.147)" cx="192.16" cy="325.81" r=".69769" opacity=".35035"/><circle transform="rotate(-52.147)" cx="179.65" cy="364.93" r=".69769" opacity=".35035"/><circle transform="rotate(-52.147)" cx="210.37" cy="352.3" r=".69769" opacity=".35035"/><circle transform="rotate(-52.147)" cx="220.6" cy="343.83" r=".69769" opacity=".35035"/><circle transform="rotate(-52.147)" cx="211.54" cy="278.27" r=".69769" opacity=".35035"/><circle transform="rotate(-52.147)" cx="64.397" cy="314.17" r=".69769" opacity=".35035"/><circle transform="rotate(-52.147)" cx="-169.52" cy="140.75" r=".69769" opacity=".35035"/><circle transform="rotate(-52.147)" cx="-128.08" cy="208.75" r=".69769" opacity=".35035"/><circle transform="rotate(35.505)" cx="294.19" cy="-26.898" r=".69769" opacity=".35035"/><circle transform="rotate(35.505)" cx="267.4" cy="-21.578" r=".69769" opacity=".35035"/><circle transform="rotate(35.505)" cx="269.28" cy="-36.164" r=".69769" opacity=".35035"/><circle transform="rotate(35.505)" cx="275.67" cy="-36.082" r=".69769" opacity=".35035"/><circle transform="rotate(35.505)" cx="277.31" cy="-22.26" r=".69769" opacity=".35035"/><circle transform="rotate(-52.147)" cx="-99.734" cy="145.99" r=".69769" opacity=".35035"/><circle transform="rotate(-52.147)" cx="-117.24" cy="135.69" r=".69769" opacity=".35035"/><circle transform="rotate(-52.147)" cx="-75.053" cy="138.11" r=".69769" opacity=".35035"/><circle transform="rotate(-52.147)" cx="-101.43" cy="139.94" r=".69769" opacity=".35035"/><circle transform="rotate(-52.147)" cx="-50.805" cy="355.43" r=".69769" opacity=".35035"/><circle transform="rotate(-52.147)" cx="-44.12" cy="344.12" r=".69769" opacity=".35035"/><circle transform="rotate(-52.147)" cx="-27.868" cy="350.39" r=".69769" opacity=".35035"/><circle transform="rotate(-52.147)" cx="-28.706" cy="357.68" r=".69769" opacity=".35035"/><circle transform="rotate(64.832)" cx="293.23" cy="-256.28" r="1.1628" opacity=".35035"/><circle transform="rotate(64.832)" cx="296.79" cy="-108.8" r="1.1628" opacity=".35035"/><circle transform="rotate(64.832)" cx="370.83" cy="-195.19" r="1.1628" opacity=".35035"/><circle transform="rotate(64.832)" cx="320.55" cy="-165.66" r="1.1628" opacity=".35035"/><circle transform="rotate(64.832)" cx="287.26" cy="-203.18" r=".46512" opacity=".35035"/><circle transform="rotate(64.832)" cx="353.44" cy="-271.39" r=".46512" opacity=".35035"/><circle transform="rotate(64.832)" cx="377.7" cy="-291.28" r=".46512" opacity=".35035"/><circle transform="rotate(64.832)" cx="313.66" cy="-103.57" r=".46512" opacity=".35035"/><circle transform="rotate(64.832)" cx="360.54" cy="-144.65" r=".46512" opacity=".35035"/><circle transform="rotate(64.832)" cx="341.58" cy="-104.15" r=".46512" opacity=".35035"/><circle transform="rotate(64.832)" cx="240.91" cy="-182.19" r=".23256" opacity=".35035"/><circle transform="rotate(64.832)" cx="249.71" cy="-261.97" r=".23256" opacity=".35035"/><circle transform="rotate(64.832)" cx="332.05" cy="-293.07" r=".69769" opacity=".35035"/><circle transform="rotate(64.832)" cx="366.03" cy="-292.19" r=".69769" opacity=".35035"/><circle transform="rotate(64.832)" cx="351.41" cy="-279.88" r=".69769" opacity=".35035"/><circle transform="rotate(64.832)" cx="353.82" cy="-286.69" r=".69769" opacity=".35035"/><circle transform="rotate(64.832)" cx="360.79" cy="-301.11" r=".69769" opacity=".35035"/><circle transform="rotate(64.832)" cx="390.35" cy="-228.26" r=".69769" opacity=".35035"/><circle transform="rotate(64.832)" cx="288.31" cy="-184.7" r=".69769" opacity=".35035"/><circle transform="rotate(64.832)" cx="301.35" cy="-138.87" r=".69769" opacity=".35035"/><circle transform="rotate(64.832)" cx="265.06" cy="-172.69" r=".69769" opacity=".35035"/><circle transform="rotate(64.832)" cx="253.29" cy="-234.27" r=".69769" opacity=".35035"/><circle transform="rotate(64.832)" cx="329.6" cy="-101.78" r=".69769" opacity=".35035"/><circle transform="rotate(64.832)" cx="348.97" cy="-149.32" r=".69769" opacity=".35035"/><circle transform="rotate(64.832)" cx="357.67" cy="-153.49" r=".69769" opacity=".35035"/><circle transform="rotate(64.832)" cx="267.72" cy="-294.2" r=".69769" opacity=".35035"/><circle transform="rotate(64.832)" cx="240.93" cy="-288.88" r=".69769" opacity=".35035"/><circle transform="rotate(64.832)" cx="242.81" cy="-303.47" r=".69769" opacity=".35035"/><circle transform="rotate(64.832)" cx="249.2" cy="-303.39" r=".69769" opacity=".35035"/><circle transform="rotate(64.832)" cx="250.83" cy="-289.56" r=".69769" opacity=".35035"/><circle transform="rotate(-5.5287)" cx="47.407" cy="110.26" r=".69769" opacity=".35035"/><circle transform="rotate(-5.5287)" cx="11.788" cy="113.07" r=".69769" opacity=".35035"/><circle transform="rotate(-5.5287)" cx="33.795" cy="97.867" r=".69769" opacity=".35035"/><circle transform="rotate(-5.5287)" cx="25.556" cy="119.06" r=".69769" opacity=".35035"/><circle transform="rotate(-5.5287)" cx="95.002" cy="170.73" r=".69769" opacity=".35035"/><circle transform="rotate(-5.5287)" cx="95.002" cy="152.97" r=".69769" opacity=".35035"/><circle transform="rotate(-5.5287)" cx="104.74" cy="152.61" r=".69769" opacity=".35035"/><circle transform="rotate(-5.5287)" cx="100.44" cy="161.09" r=".69769" opacity=".35035"/><circle transform="rotate(-5.5287)" cx="111.57" cy="162.67" r=".69769" opacity=".35035"/><circle transform="rotate(-5.5287)" cx="109.61" cy="162.67" r=".69769" opacity=".35035"/><circle transform="rotate(-5.5287)" cx="109.61" cy="162.67" r=".69769" opacity=".35035"/><circle transform="rotate(-5.5287)" cx="411.04" cy="179.6" r=".69769" opacity=".35035"/><circle transform="rotate(-5.5287)" cx="411.04" cy="179.6" r=".69769" opacity=".35035"/><circle transform="rotate(-5.5287)" cx="401.62" cy="180.48" r=".69769" opacity=".35035"/><circle transform="rotate(-5.5287)" cx="481.03" cy="67.092" r=".69769" opacity=".35035"/><circle transform="rotate(-5.5287)" cx="487.66" cy="54.554" r=".69769" opacity=".35035"/><circle transform="rotate(-5.5287)" cx="474.76" cy="53.771" r=".69769" opacity=".35035"/><circle transform="rotate(-5.5287)" cx="487.58" cy="51.132" r=".69769" opacity=".35035"/><circle transform="rotate(-5.5287)" cx="480.14" cy="48.818" r=".69769" opacity=".35035"/><circle transform="rotate(-5.5287)" cx="230.53" cy="219.1" r=".69769" opacity=".35035"/><circle transform="rotate(-5.5287)" cx="215.35" cy="219.1" r=".69769" opacity=".35035"/><circle transform="rotate(-5.5287)" cx="225.44" cy="216.46" r=".69769" opacity=".35035"/><circle transform="rotate(-5.5287)" cx="225.44" cy="216.46" r=".69769" opacity=".35035"/><circle transform="rotate(-5.5287)" cx="185.29" cy="57.45" r=".69769" opacity=".35035"/><circle transform="rotate(-5.5287)" cx="185.29" cy="43.72" r=".69769" opacity=".35035"/><circle transform="rotate(-5.5287)" cx="204.66" cy="44.817" r=".69769" opacity=".35035"/><circle transform="rotate(-5.5287)" cx="192.98" cy="49.97" r=".69769" opacity=".35035"/><circle transform="rotate(-5.5287)" cx="196.67" cy="49.933" r=".69769" opacity=".35035"/><circle transform="rotate(-5.5287)" cx="196.67" cy="49.933" r=".69769" opacity=".35035"/><path d="m156.7 253.26c-0.64913-0.36474-1.2983-0.7295-1.9474-1.0943l-0.60609 0.47409c0.64432 0.36509 1.2886 0.73019 1.933 1.0953l0.62049-0.47512z" opacity=".35035" style="paint-order:fill markers stroke"/><circle transform="rotate(-5.5287)" cx="478.35" cy="261.57" r=".69769" opacity=".35035"/><circle transform="rotate(187.12)" cx="-202.63" cy="-116.25" r="1.1628"/><circle transform="rotate(187.12)" cx="-131.36" cy="-185" r="1.1628"/><circle transform="rotate(187.12)" cx="-237.71" cy="-142.56" r="1.1628"/><circle transform="rotate(187.12)" cx="-229.75" cy="-185.49" r="1.1628"/><circle transform="rotate(187.12)" cx="-442.54" cy="-134.96" r="1.1628"/><circle transform="rotate(187.12)" cx="-417.94" cy="-59.846" r="1.1628"/><circle transform="rotate(187.12)" cx="-498.43" cy="14.999" r="1.1628"/><circle transform="rotate(187.12)" cx="-292.6" cy="-25.883" r="1.1628"/><circle transform="rotate(187.12)" cx="-329.09" cy="-110.12" r="1.1628"/><circle transform="rotate(187.12)" cx="-299.43" cy="-175.76" r="1.1628"/><circle transform="rotate(187.12)" cx="-428.85" cy="-181.98" r="1.1628"/><circle transform="rotate(187.12)" cx="-388.79" cy="-193.38" r="1.1628"/><circle transform="rotate(187.12)" cx="-374.16" cy="-121.47" r="1.1628"/><circle transform="rotate(187.12)" cx="-127.81" cy="-37.52" r="1.1628"/><circle transform="rotate(187.12)" cx="-53.757" cy="-123.91" r="1.1628"/><circle transform="rotate(187.12)" cx="-104.04" cy="-94.384" r="1.1628"/><circle transform="rotate(187.12)" cx="-45.054" cy="-36.183" r="1.1628"/><circle transform="rotate(187.12)" cx="-42.432" cy="-97.319" r="1.1628"/><circle transform="rotate(187.12)" cx="-223.56" cy="-10.438" r="1.1628"/><circle transform="rotate(187.12)" cx="-220.83" cy="-71.948" r="1.1628"/><circle transform="rotate(187.12)" cx="-263.11" cy="-225.59" r="1.1628"/><circle transform="rotate(187.12)" cx="-483.36" cy="-197.42" r="1.1628"/><circle transform="rotate(187.12)" cx="-493.95" cy="-48.451" r="1.1628"/><circle transform="rotate(187.12)" cx="-405.24" cy="12.338" r="1.1628"/><circle transform="rotate(187.12)" cx="-137.34" cy="-131.91" r=".46512"/><circle transform="rotate(187.12)" cx="-71.155" cy="-200.12" r=".46512"/><circle transform="rotate(187.12)" cx="-46.89" cy="-220" r=".46512"/><circle transform="rotate(187.12)" cx="-347.2" cy="-28.784" r=".46512"/><circle transform="rotate(187.12)" cx="-429.29" cy="-73.418" r=".46512"/><circle transform="rotate(187.12)" cx="-329.05" cy="-166.5" r=".46512"/><circle transform="rotate(187.12)" cx="-410.58" cy="-195.11" r=".46512"/><circle transform="rotate(187.12)" cx="-491.92" cy="-98.193" r=".46512"/><path d="m430.83 243.69c0.77211-0.13415 1.5442-0.26829 2.3163-0.40244l0.44091-0.26054c-0.76751 0.13445-1.535 0.2689-2.3025 0.40334l-0.45471 0.25964z" style="paint-order:fill markers stroke"/><path d="m445.79 238.63c-0.52782 0.0321-1.0556 0.0642-1.5834 0.0964l-0.4486 0.25832c0.52686-0.0313 1.0537-0.0626 1.5806-0.0939l0.45149-0.26076z" style="paint-order:fill markers stroke"/><circle transform="rotate(187.12)" cx="-436.57" cy="-196.5" r=".46512"/><circle transform="rotate(187.12)" cx="-505.77" cy="-188.71" r=".46512"/><circle transform="rotate(187.12)" cx="-468.35" cy="-177.46" r=".46512"/><circle transform="rotate(187.12)" cx="-469.23" cy="-114.4" r=".46512"/><path d="m358.82 152.98c-1.1407-0.43393-2.2814-0.86784-3.4222-1.3018l-0.4458 0.23208c1.137 0.43589 2.274 0.87178 3.411 1.3077l0.45695-0.23798z" style="paint-order:fill markers stroke"/><circle transform="rotate(187.12)" cx="-315.36" cy="-98.914" r=".46512"/><circle transform="rotate(187.12)" cx="-110.93" cy="-32.297" r=".46512"/><circle transform="rotate(187.12)" cx="-138.12" cy="16.457" r=".46512"/><circle transform="rotate(187.12)" cx="-163.7" cy="-17.163" r=".46512"/><circle transform="rotate(187.12)" cx="-64.051" cy="-73.369" r=".46512"/><circle transform="rotate(187.12)" cx="-53.091" cy="-75.915" r=".46512"/><circle transform="rotate(187.12)" cx="-61.342" cy="-38.959" r=".46512"/><circle transform="rotate(187.12)" cx="-83.015" cy="-32.877" r=".46512"/><circle transform="rotate(187.12)" cx="-183.68" cy="-110.91" r=".23256"/><circle transform="rotate(187.12)" cx="-174.88" cy="-190.69" r=".23256"/><circle transform="rotate(187.12)" cx="-290.54" cy="-70.623" r=".69769"/><circle transform="rotate(187.12)" cx="-355.05" cy="-76.688" r=".69769"/><circle transform="rotate(187.12)" cx="-245.68" cy="-142.83" r=".69769"/><circle transform="rotate(187.12)" cx="-92.537" cy="-221.8" r=".69769"/><circle transform="rotate(187.12)" cx="-58.557" cy="-220.92" r=".69769"/><circle transform="rotate(187.12)" cx="-73.186" cy="-208.6" r=".69769"/><circle transform="rotate(187.12)" cx="-70.767" cy="-215.42" r=".69769"/><circle transform="rotate(187.12)" cx="-63.805" cy="-229.83" r=".69769"/><circle transform="rotate(187.12)" cx="-34.244" cy="-156.99" r=".69769"/><circle transform="rotate(187.12)" cx="-136.29" cy="-113.42" r=".69769"/><circle transform="rotate(187.12)" cx="-212.6" cy="-67.597" r=".69769"/><circle transform="rotate(187.12)" cx="-123.24" cy="-67.597" r=".69769"/><circle transform="rotate(187.12)" cx="-159.53" cy="-101.41" r=".69769"/><circle transform="rotate(187.12)" cx="-171.3" cy="-162.99" r=".69769"/><circle transform="rotate(187.12)" cx="-94.996" cy="-30.499" r=".69769"/><circle transform="rotate(187.12)" cx="-107.5" cy="8.6207" r=".69769"/><circle transform="rotate(187.12)" cx="-76.784" cy="-4.0126" r=".69769"/><circle transform="rotate(187.12)" cx="-66.557" cy="-12.48" r=".69769"/><circle transform="rotate(187.12)" cx="-75.618" cy="-78.045" r=".69769"/><circle transform="rotate(187.12)" cx="-66.917" cy="-82.217" r=".69769"/><circle transform="rotate(187.12)" cx="-469.41" cy="-176.8" r=".69769"/><circle transform="rotate(187.12)" cx="-415.24" cy="-147.57" r=".69769"/><circle transform="rotate(187.12)" cx="-156.87" cy="-222.92" r=".69769"/><circle transform="rotate(187.12)" cx="-183.66" cy="-217.61" r=".69769"/><circle transform="rotate(187.12)" cx="-181.78" cy="-232.19" r=".69769"/><circle transform="rotate(187.12)" cx="-175.39" cy="-232.11" r=".69769"/><circle transform="rotate(187.12)" cx="-173.76" cy="-218.29" r=".69769"/><circle transform="rotate(187.12)" cx="-386.89" cy="-210.33" r=".69769"/><circle transform="rotate(187.12)" cx="-404.39" cy="-220.63" r=".69769"/><circle transform="rotate(187.12)" cx="-362.21" cy="-218.21" r=".69769"/><circle transform="rotate(187.12)" cx="-388.59" cy="-216.37" r=".69769"/><circle transform="rotate(187.12)" cx="-504.96" cy="-187.61" r=".69769"/><circle transform="rotate(187.12)" cx="-516.98" cy="-185.85" r=".69769"/><circle transform="rotate(187.12)" cx="-503.96" cy="-203.47" r=".69769"/><circle transform="rotate(187.12)" cx="-510.88" cy="-186.2" r=".69769"/><circle transform="rotate(187.12)" cx="-459.98" cy="13.425" r=".69769"/><circle transform="rotate(187.12)" cx="-465.11" cy="-24.691" r=".69769"/><circle transform="rotate(187.12)" cx="-433.79" cy="-8.0344" r=".69769"/><circle transform="rotate(187.12)" cx="-456.36" cy="-7.4618" r=".69769"/><circle transform="rotate(187.12)" cx="-463.85" cy="-8.3416" r=".69769"/><circle transform="rotate(187.12)" cx="-449.75" cy="-21.32" r=".69769"/><circle transform="rotate(187.12)" cx="-337.96" cy="-.88322" r=".69769"/><circle transform="rotate(187.12)" cx="-331.27" cy="-12.19" r=".69769"/><circle transform="rotate(187.12)" cx="-315.02" cy="-5.9289" r=".69769"/><circle transform="rotate(187.12)" cx="-315.86" cy="1.3684" r=".69769"/><circle transform="rotate(-55.9)" cx="105.97" cy="161.27" r="1.1628"/><circle transform="rotate(-55.9)" cx="109.52" cy="308.75" r="1.1628"/><circle transform="rotate(-55.9)" cx="133.28" cy="251.89" r="1.1628"/><circle transform="rotate(-55.9)" cx="99.989" cy="214.37" r=".46512"/><circle transform="rotate(-55.9)" cx="126.39" cy="313.98" r=".46512"/><circle transform="rotate(-55.9)" cx="175.98" cy="307.31" r=".46512"/><circle transform="rotate(-55.9)" cx="154.31" cy="313.4" r=".46512"/><circle transform="rotate(-55.9)" cx="53.643" cy="235.36" r=".23256"/><circle transform="rotate(-55.9)" cx="62.442" cy="155.58" r=".23256"/><circle transform="rotate(-55.9)" cx="101.04" cy="232.85" r=".69769"/><circle transform="rotate(-55.9)" cx="114.08" cy="278.68" r=".69769"/><circle transform="rotate(-55.9)" cx="77.797" cy="244.87" r=".69769"/><circle transform="rotate(-55.9)" cx="66.022" cy="183.28" r=".69769"/><circle transform="rotate(-55.9)" cx="142.33" cy="315.77" r=".69769"/><circle transform="rotate(-55.9)" cx="161.71" cy="268.23" r=".69769"/><circle transform="rotate(-55.9)" cx="80.456" cy="123.35" r=".69769"/><circle transform="rotate(-55.9)" cx="53.66" cy="128.67" r=".69769"/><circle transform="rotate(-55.9)" cx="55.544" cy="114.08" r=".69769"/><circle transform="rotate(-55.9)" cx="61.934" cy="114.16" r=".69769"/><circle transform="rotate(-55.9)" cx="63.567" cy="127.99" r=".69769"/><circle transform="rotate(140.5)" cx="-70.313" cy="-309.41" r="1.1628"/><circle transform="rotate(228.15)" cx="-235.65" cy="143.22" r="1.1628"/><circle transform="rotate(140.5)" cx="-105.39" cy="-335.72" r="1.1628"/><circle transform="rotate(140.5)" cx="-97.438" cy="-378.65" r="1.1628"/><circle transform="rotate(140.5)" cx="-310.22" cy="-328.12" r="1.1628"/><circle transform="rotate(140.5)" cx="-160.28" cy="-219.05" r="1.1628"/><circle transform="rotate(140.5)" cx="-196.77" cy="-303.28" r="1.1628"/><circle transform="rotate(140.5)" cx="-167.11" cy="-368.93" r="1.1628"/><circle transform="rotate(140.5)" cx="-296.54" cy="-375.14" r="1.1628"/><circle transform="rotate(140.5)" cx="-256.47" cy="-386.54" r="1.1628"/><circle transform="rotate(140.5)" cx="-241.84" cy="-314.63" r="1.1628"/><circle transform="rotate(140.5)" cx="4.5108" cy="-230.68" r="1.1628"/><circle transform="rotate(228.15)" cx="-160.3" cy="77.448" r="1.1628"/><circle transform="rotate(140.5)" cx="28.276" cy="-287.55" r="1.1628"/><circle transform="rotate(140.5)" cx="87.263" cy="-229.35" r="1.1628"/><circle transform="rotate(140.5)" cx="83.356" cy="-177.37" r="1.1628"/><circle transform="rotate(140.5)" cx="-91.24" cy="-203.6" r="1.1628"/><circle transform="rotate(140.5)" cx="-88.511" cy="-265.11" r="1.1628"/><circle transform="rotate(140.5)" cx="-130.79" cy="-418.75" r="1.1628"/><circle transform="rotate(140.5)" cx="-5.019" cy="-325.07" r=".46512"/><circle transform="rotate(228.15)" cx="-175.45" cy="128.1" r=".46512"/><circle transform="rotate(228.15)" cx="-151.19" cy="108.22" r=".46512"/><circle transform="rotate(140.5)" cx="-162.86" cy="-162.41" r=".46512"/><circle transform="rotate(140.5)" cx="-214.88" cy="-221.95" r=".46512"/><circle transform="rotate(140.5)" cx="-196.73" cy="-359.66" r=".46512"/><circle transform="rotate(140.5)" cx="-278.27" cy="-388.28" r=".46512"/><path d="m493.78 87.47c0.43283-0.65331 0.86566-1.3066 1.2985-1.9599l0.11347-0.4994c-0.42945 0.65016-0.8589 1.3003-1.2884 1.9505l-0.12362 0.50881z" style="paint-order:fill markers stroke"/><path d="m500.38 73.121c-0.33919 0.40568-0.67837 0.81136-1.0176 1.217l-0.12038 0.50347c0.33912-0.40443 0.67823-0.80884 1.0174-1.2133l0.12058-0.50724z" style="paint-order:fill markers stroke"/><circle transform="rotate(140.5)" cx="-304.25" cy="-389.66" r=".46512"/><circle transform="rotate(140.5)" cx="-336.03" cy="-370.62" r=".46512"/><path d="m378.4 77.502c-1.0989 0.53103-2.1978 1.0621-3.2966 1.5931l-0.13749 0.48342c1.0978-0.52696 2.1955-1.0539 3.2933-1.5809l0.14092-0.49557z" style="paint-order:fill markers stroke"/><circle transform="rotate(140.5)" cx="-183.05" cy="-292.08" r=".46512"/><circle transform="rotate(140.5)" cx="21.386" cy="-225.46" r=".46512"/><circle transform="rotate(140.5)" cx="-5.8032" cy="-176.71" r=".46512"/><circle transform="rotate(140.5)" cx="-31.386" cy="-210.33" r=".46512"/><circle transform="rotate(140.5)" cx="68.265" cy="-266.53" r=".46512"/><circle transform="rotate(140.5)" cx="79.226" cy="-269.08" r=".46512"/><circle transform="rotate(140.5)" cx="70.975" cy="-232.12" r=".46512"/><circle transform="rotate(140.5)" cx="49.302" cy="-226.04" r=".46512"/><circle transform="rotate(140.5)" cx="-51.365" cy="-304.07" r=".23256"/><circle transform="rotate(140.5)" cx="-42.565" cy="-383.85" r=".23256"/><circle transform="rotate(140.5)" cx="-158.22" cy="-263.79" r=".69769"/><circle transform="rotate(140.5)" cx="-222.73" cy="-269.85" r=".69769"/><circle transform="rotate(140.5)" cx="-113.37" cy="-335.99" r=".69769"/><circle transform="rotate(228.15)" cx="-196.83" cy="106.42" r=".69769"/><circle transform="rotate(228.15)" cx="-162.85" cy="107.3" r=".69769"/><circle transform="rotate(228.15)" cx="-177.48" cy="119.62" r=".69769"/><circle transform="rotate(228.15)" cx="-175.06" cy="112.8" r=".69769"/><circle transform="rotate(228.15)" cx="-168.1" cy="98.385" r=".69769"/><circle transform="rotate(228.15)" cx="-140.79" cy="44.376" r=".69769"/><circle transform="rotate(140.5)" cx="-3.9683" cy="-306.59" r=".69769"/><circle transform="rotate(140.5)" cx="-80.284" cy="-260.76" r=".69769"/><circle transform="rotate(140.5)" cx="9.073" cy="-260.76" r=".69769"/><circle transform="rotate(140.5)" cx="-27.21" cy="-294.57" r=".69769"/><circle transform="rotate(140.5)" cx="-38.986" cy="-356.15" r=".69769"/><circle transform="rotate(140.5)" cx="37.321" cy="-223.66" r=".69769"/><circle transform="rotate(140.5)" cx="24.816" cy="-184.54" r=".69769"/><circle transform="rotate(140.5)" cx="55.533" cy="-197.17" r=".69769"/><circle transform="rotate(140.5)" cx="65.76" cy="-205.64" r=".69769"/><circle transform="rotate(140.5)" cx="56.699" cy="-271.21" r=".69769"/><circle transform="rotate(140.5)" cx="65.4" cy="-275.38" r=".69769"/><circle transform="rotate(140.5)" cx="-282.92" cy="-340.73" r=".69769"/><circle transform="rotate(228.15)" cx="-261.16" cy="105.29" r=".69769"/><circle transform="rotate(228.15)" cx="-287.96" cy="110.61" r=".69769"/><circle transform="rotate(228.15)" cx="-286.08" cy="96.029" r=".69769"/><circle transform="rotate(228.15)" cx="-279.69" cy="96.11" r=".69769"/><circle transform="rotate(228.15)" cx="-278.05" cy="109.93" r=".69769"/><circle transform="rotate(140.5)" cx="-254.57" cy="-403.49" r=".69769"/><circle transform="rotate(140.5)" cx="-272.08" cy="-413.79" r=".69769"/><circle transform="rotate(140.5)" cx="-229.89" cy="-411.37" r=".69769"/><circle transform="rotate(140.5)" cx="-256.27" cy="-409.53" r=".69769"/><circle transform="rotate(140.5)" cx="-205.64" cy="-194.05" r=".69769"/><circle transform="rotate(140.5)" cx="-198.96" cy="-205.35" r=".69769"/><circle transform="rotate(140.5)" cx="-182.71" cy="-199.09" r=".69769"/><circle transform="rotate(140.5)" cx="-183.54" cy="-191.79" r=".69769"/><circle transform="rotate(257.48)" cx="-126.2" cy="130.98" r="1.1628"/><circle transform="rotate(257.48)" cx="-122.65" cy="278.47" r="1.1628"/><circle transform="rotate(257.48)" cx="-48.601" cy="192.07" r="1.1628"/><circle transform="rotate(257.48)" cx="-98.884" cy="221.6" r="1.1628"/><circle transform="rotate(257.48)" cx="-132.18" cy="184.08" r=".46512"/><circle transform="rotate(257.48)" cx="-65.999" cy="115.87" r=".46512"/><circle transform="rotate(257.48)" cx="-41.734" cy="95.987" r=".46512"/><circle transform="rotate(257.48)" cx="-105.77" cy="283.69" r=".46512"/><circle transform="rotate(257.48)" cx="-58.895" cy="242.62" r=".46512"/><circle transform="rotate(257.48)" cx="-77.859" cy="283.11" r=".46512"/><circle transform="rotate(257.48)" cx="-178.53" cy="205.08" r=".23256"/><circle transform="rotate(257.48)" cx="-169.73" cy="125.3" r=".23256"/><circle transform="rotate(257.48)" cx="-87.381" cy="94.191" r=".69769"/><circle transform="rotate(257.48)" cx="-53.401" cy="95.071" r=".69769"/><circle transform="rotate(257.48)" cx="-68.03" cy="107.39" r=".69769"/><circle transform="rotate(257.48)" cx="-65.611" cy="100.57" r=".69769"/><circle transform="rotate(257.48)" cx="-58.649" cy="86.152" r=".69769"/><circle transform="rotate(257.48)" cx="-133.43" cy="114.83" r=".69769"/><circle transform="rotate(257.48)" cx="-131.13" cy="202.56" r=".69769"/><circle transform="rotate(257.48)" cx="-118.09" cy="248.39" r=".69769"/><circle transform="rotate(257.48)" cx="-154.37" cy="214.58" r=".69769"/><circle transform="rotate(257.48)" cx="-166.15" cy="153" r=".69769"/><circle transform="rotate(257.48)" cx="-89.84" cy="285.49" r=".69769"/><circle transform="rotate(257.48)" cx="-70.462" cy="237.94" r=".69769"/><circle transform="rotate(257.48)" cx="-61.761" cy="233.77" r=".69769"/><circle transform="rotate(257.48)" cx="-151.71" cy="93.062" r=".69769"/><circle transform="rotate(257.48)" cx="-178.51" cy="98.381" r=".69769"/><circle transform="rotate(257.48)" cx="-176.62" cy="83.796" r=".69769"/><circle transform="rotate(257.48)" cx="-170.23" cy="83.877" r=".69769"/><circle transform="rotate(257.48)" cx="-168.6" cy="97.7" r=".69769"/><circle transform="rotate(187.12)" cx="-458.3" cy="-154.61" r=".69769"/><circle transform="rotate(187.12)" cx="-493.92" cy="-151.81" r=".69769"/><circle transform="rotate(187.12)" cx="-471.91" cy="-167.01" r=".69769"/><circle transform="rotate(187.12)" cx="-480.15" cy="-145.82" r=".69769"/><circle transform="rotate(187.12)" cx="-410.71" cy="-94.142" r=".69769"/><circle transform="rotate(187.12)" cx="-410.71" cy="-111.9" r=".69769"/><circle transform="rotate(187.12)" cx="-400.97" cy="-112.26" r=".69769"/><circle transform="rotate(187.12)" cx="-405.27" cy="-103.79" r=".69769"/><circle transform="rotate(187.12)" cx="-394.14" cy="-102.21" r=".69769"/><circle transform="rotate(187.12)" cx="-396.1" cy="-102.21" r=".69769"/><circle transform="rotate(187.12)" cx="-396.1" cy="-102.21" r=".69769"/><circle transform="rotate(187.12)" cx="-32.15" cy="-196.8" r=".69769"/><circle transform="rotate(187.12)" cx="-32.15" cy="-196.8" r=".69769"/><circle transform="rotate(187.12)" cx="-41.579" cy="-195.92" r=".69769"/><circle transform="rotate(187.12)" cx="-40.08" cy="-168.51" r=".69769"/><circle transform="rotate(187.12)" cx="-33.447" cy="-181.05" r=".69769"/><circle transform="rotate(187.12)" cx="-30.945" cy="-211.1" r=".69769"/><circle transform="rotate(187.12)" cx="-33.531" cy="-184.47" r=".69769"/><circle transform="rotate(187.12)" cx="-40.971" cy="-186.78" r=".69769"/><circle transform="rotate(187.12)" cx="-275.18" cy="-45.78" r=".69769"/><circle transform="rotate(187.12)" cx="-290.36" cy="-45.78" r=".69769"/><circle transform="rotate(187.12)" cx="-280.27" cy="-48.419" r=".69769"/><circle transform="rotate(187.12)" cx="-280.27" cy="-48.419" r=".69769"/><circle transform="rotate(187.12)" cx="-320.41" cy="-207.43" r=".69769"/><circle transform="rotate(187.12)" cx="-320.41" cy="-221.16" r=".69769"/><circle transform="rotate(187.12)" cx="-301.05" cy="-220.06" r=".69769"/><circle transform="rotate(187.12)" cx="-312.73" cy="-214.91" r=".69769"/><circle transform="rotate(187.12)" cx="-309.03" cy="-214.94" r=".69769"/><circle transform="rotate(187.12)" cx="-309.03" cy="-214.94" r=".69769"/><path d="m371.53 44.099c0.5535 0.49805 1.107 0.99611 1.6605 1.4942l0.69521-0.32985c-0.54873-0.49733-1.0975-0.99468-1.6462-1.492l-0.70948 0.3277z" style="paint-order:fill markers stroke"/><circle transform="rotate(187.12)" cx="-27.353" cy="-3.3027" r=".69769"/></g></svg>
