<?xml version="1.0" encoding="UTF-8"?>
<!-- Created with Inkscape (http://www.inkscape.org/) -->
<svg width="512" height="512" version="1.1" viewBox="0 0 135.47 135.47" xml:space="preserve" xmlns="http://www.w3.org/2000/svg" xmlns:xlink="http://www.w3.org/1999/xlink"><defs><linearGradient id="linearGradient4703" x1="69.373" x2="68.791" y1="111.53" y2="179.92" gradientUnits="userSpaceOnUse"><stop stop-color="#1f1a89" offset="0"/><stop stop-color="#4f78b7" offset="1"/></linearGradient></defs><g transform="matrix(1.6706 0 0 1.6706 -47.262 -183.78)" fill="none" stroke="url(#linearGradient4703)"><g stroke-width="2.6458"><path d="m60.854 125.68-9.2604 5.2917"/><path d="m76.729 126.24 10.583 6.0476"/><path d="m51.594 140.23 9.2604 5.2917"/><path d="m43.656 145.52v9.2604"/><path d="m68.792 158.75v11.906"/><path d="m51.594 169.33 9.2604 5.2917"/><path d="m75.406 175.95 10.583-6.0476"/><path d="m93.927 156.1v-10.583"/><path d="m85.99 141.55-9.2604 4.7247"/></g><g stroke-width="2.9817"><g transform="matrix(.33537 0 0 .33537 76.624 114.79)"><path transform="matrix(.68247 0 0 .68366 8.522 38.501)" d="m63.5 206.37-36.662-21.167-2e-6 -42.333 36.662-21.167 36.662 21.167v42.333z" stroke-width="11.55"/><path d="m26.458 136.26 25.135 14.552v29.104" stroke-width="7.8892"/><path d="m51.594 150.81 25.135-14.552" stroke-width="7.8892"/></g><g transform="matrix(.33537 0 0 .33537 76.624 86.593)"><path transform="matrix(.68247 0 0 .68366 8.522 38.501)" d="m63.5 206.37-36.662-21.167-2e-6 -42.333 36.662-21.167 36.662 21.167v42.333z" stroke-width="11.55"/><path d="m26.458 136.26 25.135 14.552v29.104" stroke-width="7.8892"/><path d="m51.594 150.81 25.135-14.552" stroke-width="7.8892"/></g><g transform="matrix(.33537 0 0 .33537 51.981 70.718)"><path transform="matrix(.68247 0 0 .68366 8.522 38.501)" d="m63.5 206.37-36.662-21.167-2e-6 -42.333 36.662-21.167 36.662 21.167v42.333z" stroke-width="11.55"/><path d="m26.458 136.26 25.135 14.552v29.104" stroke-width="7.8892"/><path d="m51.594 150.81 25.135-14.552" stroke-width="7.8892"/></g><g transform="matrix(.33537 0 0 .33537 26.264 84.859)"><path transform="matrix(.68247 0 0 .68366 8.522 38.501)" d="m63.5 206.37-36.662-21.167-2e-6 -42.333 36.662-21.167 36.662 21.167v42.333z" stroke-width="11.55"/><path d="m26.458 136.26 25.135 14.552v29.104" stroke-width="7.8892"/><path d="m51.594 150.81 25.135-14.552" stroke-width="7.8892"/></g><g transform="matrix(.33537 0 0 .33537 26.718 113.96)"><path transform="matrix(.68247 0 0 .68366 8.522 38.501)" d="m63.5 206.37-36.662-21.167-2e-6 -42.333 36.662-21.167 36.662 21.167v42.333z" stroke-width="11.55"/><path d="m26.458 136.26 25.135 14.552v29.104" stroke-width="7.8892"/><path d="m51.594 150.81 25.135-14.552" stroke-width="7.8892"/></g><g transform="matrix(.33537 0 0 .33537 51.488 129.34)"><path transform="matrix(.68247 0 0 .68366 8.522 38.501)" d="m63.5 206.37-36.662-21.167-2e-6 -42.333 36.662-21.167 36.662 21.167v42.333z" stroke-width="11.55"/><path d="m26.458 136.26 25.135 14.552v29.104" stroke-width="7.8892"/><path d="m51.594 150.81 25.135-14.552" stroke-width="7.8892"/></g><g transform="matrix(.33537 0 0 .33537 51.4 99.411)"><path transform="matrix(.68247 0 0 .68366 8.522 38.501)" d="m63.5 206.37-36.662-21.167-2e-6 -42.333 36.662-21.167 36.662 21.167v42.333z" stroke-width="11.55"/><path d="m26.458 136.26 25.135 14.552v29.104" stroke-width="7.8892"/><path d="m51.594 150.81 25.135-14.552" stroke-width="7.8892"/></g></g><path d="m85.99 141.55-9.2604 5.2917" stroke-width="0"/></g></svg>
