<?xml version="1.0" encoding="UTF-8"?>
<!-- Created with Inkscape (http://www.inkscape.org/) -->
<svg width="512" height="512" version="1.1" viewBox="0 0 135.47 135.47" xml:space="preserve" xmlns="http://www.w3.org/2000/svg" xmlns:xlink="http://www.w3.org/1999/xlink"><g transform="matrix(1.1636 0 0 1.1636 -12.315 -12.315)"><g><path d="m34.397 13.229v-2.6459h68.793v2.6459h2.6459v100.54h-2.6459v2.6459h-2.6459v2.6459h-2.6459v2.6459h-2.6459v2.6459h-2.6459v2.6459h-58.21v-2.6459h-2.6459v-111.13z" fill="#ffa000"/><path d="m34.397 13.229h68.793v100.54h-2.6459v2.6459h-2.6459v2.6459h-2.6459v2.6459h-2.6459v2.6459h-55.564v-2.6459h-2.6459z" fill="#ffc107"/><path d="m42.334 18.521h55.564v39.688h-2.6459v2.6459h-2.6459v2.6459h-2.6459v2.6459h-47.626-2.6459v-44.98h2.6459z" fill="#37474f"/><path d="m47.626 26.459h42.334v31.751h-42.334z" fill="#9e9d24"/><path d="m47.626 26.459h42.334v2.6459h-42.334z" fill="#827717"/><path d="m42.334 31.751h2.6459v2.6459h-2.6459z" fill="#e91e63"/></g><g fill="#607d8b"><path d="m42.334 34.397h2.6459v2.6459h-2.6459z"/><path d="m47.626 60.856h13.229v2.6459h-13.229z"/><path d="m63.502 60.856h7.9377v2.6459h-7.9377z"/></g><path d="m92.606 82.023h7.9377v5.2918h-7.9377z" fill="#263238"/><path d="m92.606 79.377h7.9377v2.6459h-7.9377z" fill="#37464f" fill-opacity=".9098"/><path d="m92.606 87.315v2.6459h7.9377v-2.6459z" fill="#ffa000" fill-opacity=".99608"/><path d="m95.252 89.961-1e-6 2.6459h2.6459v-2.6459z" fill="#263238"/><path d="m79.377 87.315v-2.6459h7.9377v2.6459z" fill="#36444e" fill-opacity=".99608"/><g><path d="m79.377 87.315v7.9377l7.9377-2e-6v-7.9377z" fill="#263238"/><path d="m79.377 95.252v2.6459l7.9377-3e-6v-2.6459z" fill="#ffa000"/><path d="m82.023 97.898v2.6459h2.6459v-2.6459z" fill="#263238"/></g><g fill="#ffa000"><path d="m92.606 100.54h2.6459v2.6459h-2.6459z"/><path d="m92.606 100.54h2.6459v2.6459h-2.6459z"/><path d="m92.606 105.84h2.6459v2.6459h-2.6459z"/><path d="m87.315 107.16h2.6459v2.6459h-2.6459z"/><path d="m87.315 105.84h2.6459v2.6459h-2.6459z"/><path d="m92.606 111.13h2.6459v2.6459h-2.6459z"/><path d="m87.315 111.13h2.6459v2.6459h-2.6459z"/></g><g fill="#263238"><path d="m89.961 103.19h2.6459v2.6459h-2.6459z"/><path d="m95.252 103.19h2.6459v2.6459h-2.6459z"/><path d="m89.961 108.48h2.6459v2.6459h-2.6459z"/><path d="m89.961 113.77h2.6459v2.6459h-2.6459z"/><path d="m84.669 108.48h2.6459v2.6459h-2.6459z"/><path d="m84.669 115.1h2.6459v2.6459h-2.6459z"/><path d="m95.252 108.48h2.6459v2.6459h-2.6459z"/><path d="m58.21 103.19h7.9377v2.6459h-7.9377z"/></g><g><path d="m58.21 105.84h7.9377v2.6459h-7.9377z" fill="#ffa000"/><path d="m71.439 103.19h7.9377v2.6459h-7.9377z" fill="#263238"/><path d="m71.439 105.84h7.9377v2.6459h-7.9377z" fill="#ffa000"/><path d="m44.98 82.023h5.2918v5.2918h5.2918v2.6459h-5.2918v5.2918h-5.2918v-5.2918h-5.2918v-2.6459h5.2918z" fill="#263238"/></g><g fill="#36464e" fill-opacity=".99608"><path d="m39.688 84.669h5.2918v2.6459h-5.2918z"/><path d="m50.272 84.669h5.2918v2.6459h-5.2918z"/><path d="m44.98 79.377h5.2918v2.6459h-5.2918z"/></g><g fill="#ffa000"><path d="m39.688 89.961v2.6459h5.2918v-2.6459z"/><path d="m50.272 89.961v2.6459h5.2918v-2.6459z"/><path d="m44.98 95.252h5.2918v2.6459h-5.2918z"/></g></g></svg>
