<?xml version="1.0" encoding="UTF-8"?>
<!-- Created with Inkscape (http://www.inkscape.org/) -->
<svg width="512" height="512" version="1.1" viewBox="0 0 135.47 135.47" xml:space="preserve" xmlns="http://www.w3.org/2000/svg" xmlns:xlink="http://www.w3.org/1999/xlink"><g transform="rotate(33.345 29.441 20.547)"><g transform="rotate(-33.345 28.962 22.975)"><rect x="12.198" y="33.928" width="113.59" height="82.495" ry="6.0161" fill="#b1b4b7" style="paint-order:fill markers stroke"/><path d="m12.228 111.02c0.30394 3.0442 2.859 5.406 5.9858 5.406h101.55c3.1269 0 5.6814-2.3618 5.9853-5.406z" fill="#111117" stroke-linecap="round" stroke-linejoin="round" stroke-width="9.3092" style="paint-order:fill markers stroke"/><path d="m61.483 28.129h16.869c1.0117 3.6181 0 7.9882 0 7.9882h-16.869s-1.0514-5.2207 0-7.9882z" fill="#3978bc" stroke-linecap="round" stroke-linejoin="round" stroke-width="7.9377" style="paint-order:fill markers stroke"/><path d="m18.214 33.927c-3.3329 0-6.0163 2.2451-6.0163 5.0335v11.648h113.59v-11.648c0-2.7885-2.6829-5.0335-6.0158-5.0335z" fill="#111117" stroke-linecap="round" stroke-linejoin="round" stroke-width="8.5149" style="paint-order:fill markers stroke"/><g><rect x="18.372" y="41.262" width="9.3133" height="1.4736" ry=".73679" fill="#dbe2e9" style="paint-order:fill markers stroke"/><rect x="108.73" y="41.262" width="9.3133" height="1.4736" ry=".73679" fill="#160ba9" style="paint-order:fill markers stroke"/><text x="62.604649" y="32.454124" fill="#ffffff" font-family="'Fira Mono'" font-size="3.5279px" stroke-width=".26459" style="line-height:1.25" xml:space="preserve"><tspan x="62.604649" y="32.454124" fill="#ffffff" font-family="'Fira Mono'" font-size="3.5279px" stroke-width=".26459">emerald</tspan></text></g></g><g transform="translate(6.0027 -11.265)" fill="#8a8d95"><ellipse transform="rotate(.058258)" cx="123.45" cy="54.149" rx="3.5114" ry="1.8086" style="paint-order:fill markers stroke"/><g stroke-linecap="round" stroke-linejoin="round" stroke-width="7.9377"><path d="m87.658 51.525 35.303 0.0359s0.98039 2.6329-6e-3 5.4265l-35.303-0.0359z" style="paint-order:fill markers stroke"/><path d="m59.162 51.496 28.496 0.02897c1.0207 3.0986-0.0055 5.4265-0.0055 5.4265l-28.496-0.02897z" style="paint-order:fill markers stroke"/><path d="m59.157 56.922c-7.8992-2.337-7.7654-2.3368 0.0055-5.4265z" style="paint-order:fill markers stroke"/></g></g><ellipse transform="rotate(.058258)" cx="129.39" cy="41.334" rx="3.5114" ry="1.8086" fill="#1b1b23" style="paint-order:fill markers stroke"/><path d="m93.609 38.716 35.303 0.0359s0.98039 2.6329-6e-3 5.4265l-35.303-0.0359z" fill="#9da1a7" stroke-linecap="round" stroke-linejoin="round" stroke-width="7.9377" style="paint-order:fill markers stroke"/><path d="m65.113 38.687 28.496 0.02897c1.0207 3.0986-0.0055 5.4265-0.0055 5.4265l-28.496-0.02897z" fill="#111117" stroke-linecap="round" stroke-linejoin="round" stroke-width="7.9377" style="paint-order:fill markers stroke"/><g transform="matrix(-1 -.0010168 -.0010168 1 124.9 -27.626)"><rect x="39.69" y="68.286" width="11.67" height="1.5537" ry=".70247" fill="#0d0c12" style="paint-order:fill markers stroke"/><rect x="39.583" y="67.917" width="11.67" height="1.5537" ry=".70247" fill="#1b1b23" style="paint-order:fill markers stroke"/></g><path d="m65.107 44.113c-7.8992-2.337-7.7654-2.3368 0.0055-5.4265z" fill="#1b1b23" stroke-linecap="round" stroke-linejoin="round" stroke-width="7.9377" style="paint-order:fill markers stroke"/><path d="m124.83 38.747 2.6876 0.0027c0.96831 2.7142-6e-3 5.4265-6e-3 5.4265l-2.6876-0.0027s0.58071-2.7126 6e-3 -5.4265z" fill="#3978bc" stroke-linecap="round" stroke-linejoin="round" stroke-width="7.9377" style="paint-order:fill markers stroke"/><text transform="rotate(.058258)" x="102.11604" y="42.633709" fill="#585e63" font-family="'Fira Mono'" font-size="3.5279px" stroke-width=".26459" style="line-height:1.25" xml:space="preserve"><tspan x="102.11604" y="42.633709" fill="#585e63" font-family="'Fira Mono'" font-size="3.5279px" stroke-width=".26459">emerald</tspan></text></g></svg>
