<?xml version="1.0" encoding="UTF-8" standalone="no"?>
<svg
   viewBox="0 0 64 63.999994"
   version="1.1"
   id="svg863"
   sodipodi:docname="favicon.svg"
   inkscape:version="1.2.1 (9c6d41e410, 2022-07-14, custom)"
   width="64"
   height="64"
   xml:space="preserve"
   xmlns:inkscape="http://www.inkscape.org/namespaces/inkscape"
   xmlns:sodipodi="http://sodipodi.sourceforge.net/DTD/sodipodi-0.dtd"
   xmlns="http://www.w3.org/2000/svg"
   xmlns:svg="http://www.w3.org/2000/svg"
   xmlns:rdf="http://www.w3.org/1999/02/22-rdf-syntax-ns#"
   xmlns:cc="http://creativecommons.org/ns#"
   xmlns:dc="http://purl.org/dc/elements/1.1/"><metadata
     id="metadata869"><rdf:RDF><cc:Work
         rdf:about=""><dc:format>image/svg+xml</dc:format><dc:type
           rdf:resource="http://purl.org/dc/dcmitype/StillImage" /></cc:Work></rdf:RDF></metadata><defs
     id="defs867"><inkscape:perspective
       sodipodi:type="inkscape:persp3d"
       inkscape:vp_x="-10.907285 : 5.8860656 : 1"
       inkscape:vp_y="0 : 1000 : 0"
       inkscape:vp_z="83.378771 : 5.6066239 : 1"
       inkscape:persp3d-origin="21.092715 : -4.7806004 : 1"
       id="perspective4747" /></defs><sodipodi:namedview
     pagecolor="#ffffff"
     bordercolor="#666666"
     borderopacity="1"
     objecttolerance="10"
     gridtolerance="10"
     guidetolerance="10"
     inkscape:pageopacity="0"
     inkscape:pageshadow="2"
     inkscape:window-width="1916"
     inkscape:window-height="1028"
     id="namedview865"
     showgrid="false"
     inkscape:zoom="7.1276364"
     inkscape:cx="18.028417"
     inkscape:cy="36.688179"
     inkscape:window-x="0"
     inkscape:window-y="24"
     inkscape:window-maximized="1"
     inkscape:current-layer="svg863"
     inkscape:document-rotation="0"
     showguides="false"
     inkscape:guide-bbox="true"
     inkscape:snap-global="true"
     inkscape:showpageshadow="0"
     inkscape:pagecheckerboard="0"
     inkscape:deskcolor="#d1d1d1" /><style
     id="style833">.cls-1{fill:#fed136;}</style><text
     xml:space="preserve"
     style="font-size:40px;line-height:1.25;font-family:'Noto Sans Myanmar';-inkscape-font-specification:'Noto Sans Myanmar'"
     x="43.001614"
     y="-22.484503"
     id="text982"><tspan
       sodipodi:role="line"
       id="tspan980"
       x="43.001614"
       y="-22.484503" /></text><g
     id="g5654"
     transform="matrix(0.96875,0,0,0.96875,1.0003722,1)"><path
       sodipodi:type="star"
       style="opacity:1;fill:#87e694;fill-opacity:1;stroke-width:0.5;stroke-linecap:round;stroke-linejoin:round"
       id="path4777"
       inkscape:flatsided="true"
       sodipodi:sides="6"
       sodipodi:cx="23.188843"
       sodipodi:cy="0"
       sodipodi:r1="33.464951"
       sodipodi:r2="28.981499"
       sodipodi:arg1="1.5707963"
       sodipodi:arg2="2.0943951"
       inkscape:rounded="0.07"
       inkscape:randomized="0"
       d="m 23.188844,33.464951 c -2.342547,0 -27.8102248,-14.70377 -28.9814981,-16.732475 -1.1712733,-2.028705 -1.1712741,-31.436246 -9e-7,-33.464951 1.1712732,-2.028704 26.63895,-16.732475 28.981497,-16.732476 2.342546,0 27.810224,14.70377 28.981498,16.732475 1.171273,2.028705 1.171274,31.436246 10e-7,33.464951 C 50.999067,18.761179 25.53139,33.46495 23.188844,33.464951 Z"
       transform="matrix(0.76919015,0,0,0.95622433,14.163371,32)" /><path
       id="path5190"
       style="fill:#39c453;fill-opacity:1;stroke:none;stroke-width:1px;stroke-linecap:butt;stroke-linejoin:miter;stroke-opacity:1"
       d="m 9.7070312,16 c -0.028154,0.06062 -0.055637,0.147655 -0.082031,0.257812 -0.026395,0.110158 -0.051537,0.243894 -0.076172,0.400391 -0.04927,0.312994 -0.094488,0.714182 -0.1367187,1.193359 -0.042231,0.479178 -0.080042,1.036457 -0.1152344,1.65625 -0.035193,0.619794 -0.067549,1.302266 -0.095703,2.03711 -0.028154,0.734844 -0.053103,1.521376 -0.074219,2.345703 -0.021116,0.824327 -0.038657,1.687928 -0.052734,2.576172 -0.014077,0.888244 -0.024211,1.801922 -0.03125,2.728515 C 9.0359302,30.121906 9.03125,31.060623 9.03125,32 c 0,0.939377 0.00468,1.878094 0.011719,2.804688 0.00704,0.926593 0.017173,1.840271 0.03125,2.728515 0.014077,0.888244 0.031619,1.751845 0.052734,2.576172 0.021116,0.824327 0.046065,1.610859 0.074219,2.345703 0.028154,0.734844 0.06051,1.417316 0.095703,2.03711 0.035193,0.619793 0.073003,1.177072 0.1152344,1.65625 0.042231,0.479177 0.087449,0.880365 0.1367187,1.193359 0.024635,0.156497 0.049777,0.290233 0.076172,0.400391 0.026395,0.110157 0.053877,0.19719 0.082031,0.257812 L 18.017578,42.035156 V 21.964844 Z" /><path
       id="path5262"
       style="fill:#00a621;fill-opacity:1;stroke:none;stroke-width:1px;stroke-linecap:butt;stroke-linejoin:miter;stroke-opacity:1"
       d="m 54.178136,16 c 0.02815,0.06062 0.05564,0.147655 0.08203,0.257812 0.0264,0.110158 0.05154,0.243894 0.07617,0.400391 0.04927,0.312994 0.09449,0.714182 0.136719,1.193359 0.04223,0.479178 0.08004,1.036457 0.115234,1.65625 0.03519,0.619794 0.06755,1.302266 0.0957,2.03711 0.02815,0.734844 0.0531,1.521376 0.07422,2.345703 0.02112,0.824327 0.03866,1.687928 0.05273,2.576172 0.01408,0.888244 0.02421,1.801922 0.03125,2.728515 0.007,0.926594 0.01172,1.865311 0.01172,2.804688 0,0.939377 -0.0047,1.878094 -0.01172,2.804688 -0.007,0.926593 -0.01717,1.840271 -0.03125,2.728515 -0.01408,0.888244 -0.03162,1.751845 -0.05273,2.576172 -0.02112,0.824327 -0.04606,1.610859 -0.07422,2.345703 -0.02815,0.734844 -0.06051,1.417316 -0.0957,2.03711 -0.03519,0.619793 -0.073,1.177072 -0.115234,1.65625 -0.04223,0.479177 -0.08745,0.880365 -0.136719,1.193359 -0.02463,0.156497 -0.04978,0.290233 -0.07617,0.400391 -0.0264,0.110157 -0.05388,0.19719 -0.08203,0.257812 L 45.867589,42.035156 V 21.964844 Z" /><path
       id="path5273"
       style="opacity:1;fill:#d2f5d7;stroke-width:0.5;stroke-linecap:round;stroke-linejoin:round"
       d="m 23.188842,-33.466514 c -2.342544,10e-7 -27.810341,14.706183 -28.981613,16.734885 -1.1712721,2.028703 -1.1712722,31.434555 0,33.463258 1.1712721,2.028703 26.639069,16.734885 28.981613,16.734885 z"
       transform="matrix(0.48245837,0,0,0.59977163,20.812349,32)" /><path
       id="path5427"
       style="fill:#39c453;fill-opacity:1;stroke:none;stroke-width:1px;stroke-linecap:butt;stroke-linejoin:miter;stroke-opacity:1"
       d="m 32,64 c 0.05631,0 0.130767,-0.01435 0.220703,-0.04102 0.08994,-0.02666 0.195068,-0.06546 0.316406,-0.117187 0.121339,-0.05173 0.25769,-0.116214 0.408203,-0.191406 0.150514,-0.07519 0.314725,-0.160752 0.492188,-0.257813 0.354926,-0.194122 0.761572,-0.431117 1.210938,-0.703125 0.449365,-0.272008 0.942755,-0.578904 1.46875,-0.916016 0.525994,-0.337111 1.085109,-0.704319 1.669921,-1.09375 0.584812,-0.38943 1.194494,-0.801502 1.820313,-1.230468 0.625819,-0.428967 1.267,-0.874359 1.916016,-1.330078 0.649015,-0.45572 1.306535,-0.92289 1.960937,-1.392579 0.654402,-0.469688 1.307241,-0.943187 1.949219,-1.414062 0.641977,-0.470875 1.273023,-0.93916 1.884765,-1.398438 0.611743,-0.459277 1.203882,-0.908853 1.767579,-1.34375 0.563696,-0.434896 1.097863,-0.85422 1.595703,-1.251953 0.49784,-0.397732 0.958874,-0.773308 1.373047,-1.121093 0.414172,-0.347786 0.783007,-0.668071 1.095703,-0.953125 0.156347,-0.142528 0.298142,-0.275943 0.425781,-0.400391 0.127639,-0.124448 0.241187,-0.23898 0.33789,-0.34375 0.0967,-0.10477 0.176693,-0.199708 0.240235,-0.283203 0.06354,-0.08349 0.110518,-0.156175 0.138672,-0.216797 0.02815,-0.06062 0.05564,-0.147655 0.08203,-0.257812 L 45.982422,42.035156 32,52.072266 Z" /><path
       id="path5640"
       style="fill:#39c453;fill-opacity:1;stroke:none;stroke-width:1px;stroke-linecap:butt;stroke-linejoin:miter;stroke-opacity:1"
       d="m 54.224609,15.892578 c -0.02321,-0.03645 -0.03821,-0.06719 -0.07031,-0.109375 C 54.090759,15.699703 54.010768,15.60477 53.914064,15.5 53.817364,15.39523 53.703813,15.280698 53.576174,15.15625 53.448535,15.031802 53.30674,14.898387 53.150393,14.755859 52.837697,14.470805 52.468863,14.15052 52.05469,13.802734 51.640516,13.454949 51.179483,13.079373 50.681643,12.681641 50.183803,12.283908 49.649636,11.864584 49.08594,11.429688 48.522243,10.994791 47.930104,10.545215 47.318361,10.085938 46.706617,9.6266601 46.075571,9.1583747 45.433594,8.6875 44.791616,8.2166253 44.138777,7.7431261 43.484375,7.2734375 42.829973,6.8037489 42.172453,6.3365786 41.523438,5.8808594 40.874422,5.4251401 40.233241,4.9797478 39.607422,4.5507812 38.981603,4.1218147 38.371921,3.7097429 37.787109,3.3203125 37.202297,2.9308821 36.643182,2.5636735 36.117188,2.2265625 35.591193,1.8894515 35.097803,1.5825552 34.648438,1.3105469 34.199072,1.0385386 33.792426,0.80154408 33.4375,0.60742188 33.260037,0.51036077 33.095826,0.42480208 32.945312,0.34960938 32.794799,0.27441667 32.658448,0.20992951 32.537109,0.15820312 32.415771,0.10647674 32.31064,0.06767778 32.220703,0.04101562 32.130767,0.01435347 32.056308,0 32,0 V 11.927734 L 45.982422,21.964844 54.177734,16 Z" /></g></svg>
