<?xml version="1.0" encoding="UTF-8"?>
<!-- Created with Inkscape (http://www.inkscape.org/) -->
<svg width="41" height="41" version="1.1" viewBox="0 0 10.848 10.848" xml:space="preserve" xmlns="http://www.w3.org/2000/svg"><g transform="matrix(.1707 0 0 .1707 -.038402 -.038407)" stroke-width="1.55"><text x="43.001614" y="-22.484503" font-family="'Noto Sans Myanmar'" font-size="40px" style="line-height:1.25" xml:space="preserve"><tspan x="43.001614" y="-22.484503" stroke-width="1.55"/></text><g transform="matrix(.96875 0 0 .96875 1.0004 1)"><path transform="matrix(.76919 0 0 .95622 14.163 32)" d="m23.189 33.465c-2.3425 0-27.81-14.704-28.981-16.732s-1.1713-31.436-9e-7 -33.465c1.1713-2.0287 26.639-16.732 28.981-16.732 2.3425 0 27.81 14.704 28.981 16.732 1.1713 2.0287 1.1713 31.436 1e-6 33.465-1.1713 2.0287-26.639 16.732-28.981 16.732z" fill="#87e694" stroke-linecap="round" stroke-linejoin="round" stroke-width=".775"/><path d="m9.707 16c-0.028154 0.06062-0.055637 0.14766-0.082031 0.25781-0.026395 0.11016-0.051537 0.24389-0.076172 0.40039-0.04927 0.31299-0.094488 0.71418-0.13672 1.1934-0.042231 0.47918-0.080042 1.0365-0.11523 1.6562-0.035193 0.61979-0.067549 1.3023-0.095703 2.0371s-0.053103 1.5214-0.074219 2.3457-0.038657 1.6879-0.052734 2.5762-0.024211 1.8019-0.03125 2.7285c-0.0070389 0.92659-0.011719 1.8653-0.011719 2.8047s0.00468 1.8781 0.011719 2.8047c0.00704 0.92659 0.017173 1.8403 0.03125 2.7285s0.031619 1.7518 0.052734 2.5762c0.021116 0.82433 0.046065 1.6109 0.074219 2.3457s0.06051 1.4173 0.095703 2.0371c0.035193 0.61979 0.073003 1.1771 0.11523 1.6562 0.042231 0.47918 0.087449 0.88036 0.13672 1.1934 0.024635 0.1565 0.049777 0.29023 0.076172 0.40039s0.053877 0.19719 0.082031 0.25781l8.3105-5.9648v-20.07z" fill="#39c453"/><path d="m54.178 16c0.02815 0.06062 0.05564 0.14766 0.08203 0.25781 0.0264 0.11016 0.05154 0.24389 0.07617 0.40039 0.04927 0.31299 0.09449 0.71418 0.13672 1.1934 0.04223 0.47918 0.08004 1.0365 0.11523 1.6562 0.03519 0.61979 0.06755 1.3023 0.0957 2.0371s0.0531 1.5214 0.07422 2.3457 0.03866 1.6879 0.05273 2.5762c0.01408 0.88824 0.02421 1.8019 0.03125 2.7285 7e-3 0.92659 0.01172 1.8653 0.01172 2.8047s-0.0047 1.8781-0.01172 2.8047c-7e-3 0.92659-0.01717 1.8403-0.03125 2.7285s-0.03162 1.7518-0.05273 2.5762c-0.02112 0.82433-0.04606 1.6109-0.07422 2.3457-0.02815 0.73484-0.06051 1.4173-0.0957 2.0371-0.03519 0.61979-0.073 1.1771-0.11523 1.6562-0.04223 0.47918-0.08745 0.88036-0.13672 1.1934-0.02463 0.1565-0.04978 0.29023-0.07617 0.40039-0.0264 0.11016-0.05388 0.19719-0.08203 0.25781l-8.3105-5.9648v-20.07z" fill="#00a621"/><path transform="matrix(.48246 0 0 .59977 20.812 32)" d="m23.189-33.467c-2.3425 1e-6 -27.81 14.706-28.982 16.735-1.1713 2.0287-1.1713 31.435 0 33.463 1.1713 2.0287 26.639 16.735 28.982 16.735z" fill="#d2f5d7" stroke-linecap="round" stroke-linejoin="round" stroke-width=".775"/><path d="m32 64c0.05631 0 0.13077-0.01435 0.2207-0.04102 0.08994-0.02666 0.19507-0.06546 0.31641-0.11719s0.25769-0.11621 0.4082-0.19141c0.15051-0.07519 0.31472-0.16075 0.49219-0.25781 0.35493-0.19412 0.76157-0.43112 1.2109-0.70312 0.44936-0.27201 0.94276-0.5789 1.4688-0.91602 0.52599-0.33711 1.0851-0.70432 1.6699-1.0938 0.58481-0.38943 1.1945-0.8015 1.8203-1.2305 0.62582-0.42897 1.267-0.87436 1.916-1.3301 0.64902-0.45572 1.3065-0.92289 1.9609-1.3926 0.6544-0.46969 1.3072-0.94319 1.9492-1.4141 0.64198-0.47088 1.273-0.93916 1.8848-1.3984 0.61174-0.45928 1.2039-0.90885 1.7676-1.3438 0.5637-0.4349 1.0979-0.85422 1.5957-1.252 0.49784-0.39773 0.95887-0.77331 1.373-1.1211 0.41417-0.34779 0.78301-0.66807 1.0957-0.95312 0.15635-0.14253 0.29814-0.27594 0.42578-0.40039s0.24119-0.23898 0.33789-0.34375 0.17669-0.19971 0.24024-0.2832c0.06354-0.08349 0.11052-0.15618 0.13867-0.2168s0.05564-0.14766 0.08203-0.25781l-8.3926-5.707-13.982 10.037z" fill="#39c453"/><path d="m54.225 15.893c-0.02321-0.03645-0.03821-0.06719-0.07031-0.10938-0.06354-0.0835-0.14353-0.17843-0.24024-0.2832-0.0967-0.10477-0.21025-0.2193-0.33789-0.34375s-0.26943-0.25786-0.42578-0.40039c-0.3127-0.28505-0.68153-0.60534-1.0957-0.95312s-0.87521-0.72336-1.373-1.1211c-0.49784-0.39773-1.032-0.81706-1.5957-1.252-0.5637-0.4349-1.1558-0.88447-1.7676-1.3438-0.61174-0.45928-1.2428-0.92756-1.8848-1.3984-0.64198-0.47087-1.2948-0.94437-1.9492-1.4141s-1.3119-0.93686-1.9609-1.3926c-0.64902-0.45572-1.2902-0.90111-1.916-1.3301-0.62582-0.42897-1.2355-0.84104-1.8203-1.2305s-1.1439-0.75664-1.6699-1.0938c-0.526-0.33711-1.0194-0.64401-1.4688-0.91602-0.44937-0.27201-0.85601-0.509-1.2109-0.70313-0.17746-0.097061-0.34167-0.18262-0.49219-0.25781-0.15051-0.075193-0.28686-0.13968-0.4082-0.19141-0.12134-0.051726-0.22647-0.090525-0.31641-0.11719-0.089936-0.026662-0.1644-0.041016-0.2207-0.041016v11.928l13.982 10.037 8.1953-5.9648z" fill="#39c453"/></g></g><style>.cls-1{fill:#fed136;}</style></svg>
