<?xml version="1.0" encoding="UTF-8"?>
<!-- Created with Inkscape (http://www.inkscape.org/) -->
<svg width="512" height="512" version="1.1" viewBox="0 0 135.47 135.47" xml:space="preserve" xmlns="http://www.w3.org/2000/svg" xmlns:xlink="http://www.w3.org/1999/xlink"><g transform="translate(0 14.896)"><rect x="8.226" y="25.504" width="119.02" height="67.517" ry="7.5994" fill="#eef4f5" stroke="#222" stroke-linecap="round" stroke-linejoin="round" stroke-width="7.9377" style="paint-order:fill markers stroke"/><rect x="8.226" y="25.504" width="119.02" height="67.517" ry="7.5994" fill="#eef4f5" style="paint-order:fill markers stroke"/><path d="m15.826 24.55c-4.2101 0-7.5997 3.3897-7.5997 7.5997v1.2651h119.02v-1.2651c0-4.2101-3.3896-7.5997-7.5997-7.5997z" fill="#8098ff" stroke-linecap="round" stroke-linejoin="round" stroke-width="5.2918" style="paint-order:fill markers stroke"/><g transform="translate(.78278 -4.1951)"><circle cx="17.638" cy="33.177" r="1.3229" fill="#c73434"/><circle cx="21.691" cy="33.177" r="1.3229" fill="#e2e04d"/><circle cx="25.744" cy="33.177" r="1.3229" fill="#34c738"/></g><rect x="33.567" y="27.471" width="81.965" height="3.0218" ry="0" fill="#c0d5e0"/><rect x="16.315" y="41.142" width="38.965" height="43.895" fill="#c4abe0"/><rect transform="scale(1,-1)" x="60.611" y="-55.334" width="54.921" height="2.8862" fill="#c0d5e0"/><rect x="60.611" y="72.831" width="19.737" height="5.7835" ry="2.8917" fill="#4f3fda"/><g fill="#c0d5e0"><rect transform="scale(1,-1)" x="60.611" y="-60.43" width="54.921" height="2.8862"/><rect transform="scale(1,-1)" x="60.611" y="-65.526" width="54.921" height="2.8862"/><rect transform="scale(1,-1)" x="60.611" y="-70.621" width="34.956" height="2.8862"/><rect transform="scale(1,-1)" x="64.23" y="-46.922" width="20.639" height="2.8862"/><rect transform="scale(1,-1)" x="89.915" y="-46.922" width="13.544" height="2.8862"/></g><rect x="58.996" y="96.99" width="17.478" height="9.4138" fill="#222" style="paint-order:fill markers stroke"/><rect x="36.678" y="106.4" width="62.114" height="3.4673" fill="#222" style="paint-order:fill markers stroke"/></g></svg>
